<svg width="763" height="99" viewBox="0 0 763 99" fill="none" xmlns="http://www.w3.org/2000/svg">
<path d="M429.717 98.304C407.701 98.304 392.981 81.536 392.981 57.216C392.981 26.624 417.045 4.60803 440.085 4.60803C461.717 4.60803 476.437 21.504 476.437 45.696C476.437 76.288 452.373 98.304 429.717 98.304ZM462.229 42.24C462.229 24.704 454.933 11.904 440.341 11.904C422.933 11.904 407.317 31.872 407.317 60.8C407.317 78.336 414.613 90.88 429.717 90.88C446.741 90.88 462.229 70.912 462.229 42.24Z" fill="white"/>
<path d="M366.63 24.576L326.566 98.304H321.318L306.726 26.112L297.51 68.48C296.486 73.472 294.694 80.128 294.694 85.248C294.694 89.344 296.102 91.648 299.558 93.312L299.046 96.512C295.206 96.256 291.494 96.128 288.422 96.128C285.35 96.128 282.406 96.256 278.438 96.512L278.182 93.056C283.174 90.88 285.222 88.576 286.758 82.688C287.91 78.464 289.062 72.96 290.086 68.608L297.894 34.304C299.942 25.6 300.71 22.144 300.71 17.408C300.71 13.696 299.302 11.392 294.822 9.85603L295.078 6.27203C302.118 6.65603 308.134 6.65603 315.558 6.65603L330.15 77.312L367.91 6.65603C374.822 6.65603 384.166 6.65603 389.286 6.40003L389.542 10.112C383.91 12.288 381.99 14.464 380.71 19.968C379.942 23.04 379.302 27.008 378.79 30.592L373.414 68.48C372.646 73.984 371.622 81.408 371.622 86.144C371.622 89.6 373.158 91.52 376.87 93.184L376.358 96.512C371.494 96.256 366.886 96.128 363.686 96.128C360.486 96.128 355.75 96.256 350.63 96.512L350.374 93.184C356.262 91.52 358.054 85.888 359.078 78.976C359.59 75.776 359.974 72.192 360.486 68.48L366.63 24.576Z" fill="white"/>
<path d="M272.149 34.304L266.133 68.352C264.341 78.464 263.445 81.664 263.445 86.144C263.445 89.6 264.981 91.52 268.821 92.928L268.181 96.384C263.317 96.128 258.965 96 255.765 96C252.565 96 248.213 96.128 243.093 96.384L242.965 92.928C247.829 90.88 248.981 88.32 250.389 82.432C251.413 78.208 252.565 72.704 253.333 68.352L259.349 34.304C261.141 24.192 261.909 20.992 261.909 16.512C261.909 13.056 260.373 11.264 256.661 9.72803L257.301 6.27203C262.165 6.52803 266.389 6.65603 269.589 6.65603C272.789 6.65603 277.269 6.52803 282.389 6.27203L282.517 9.72803C277.525 11.776 276.501 14.336 275.093 20.224C274.069 24.448 272.917 29.952 272.149 34.304Z" fill="white"/>
<path d="M204.517 17.152C204.517 13.952 202.981 12.416 197.861 12.416C194.789 12.416 192.613 12.672 190.053 13.312C187.493 13.952 185.189 14.976 182.501 17.408C180.325 19.456 177.893 22.912 175.589 27.648L171.493 26.24C173.157 19.584 174.693 12.928 176.229 6.27203C181.221 6.65603 185.317 6.65603 190.565 6.65603H234.853C240.101 6.65603 244.325 6.52803 249.445 6.27203C249.445 13.184 249.061 20.224 248.293 27.136L244.069 27.264C243.173 22.912 242.277 19.712 240.869 17.664C239.461 15.616 237.669 13.952 234.597 13.184C232.421 12.544 229.605 12.416 226.149 12.416C220.005 12.416 218.981 13.568 217.701 18.688C216.805 22.528 215.909 27.264 215.141 31.872L208.613 68.352C206.565 79.488 206.053 82.432 206.053 86.144C206.053 89.6 207.333 91.52 212.197 92.928L211.685 96.384C206.821 96.128 201.573 96 198.373 96C195.173 96 189.925 96.128 184.805 96.384L184.677 92.928C189.669 90.88 191.461 88.32 192.869 82.432C193.893 78.208 195.045 72.704 195.813 68.352L201.829 34.304C203.493 24.832 204.517 21.12 204.517 17.152Z" fill="white"/>
<path d="M122.642 17.152C122.642 13.952 121.106 12.416 115.986 12.416C112.914 12.416 110.738 12.672 108.178 13.312C105.618 13.952 103.314 14.976 100.626 17.408C98.45 19.456 96.018 22.912 93.714 27.648L89.618 26.24C91.282 19.584 92.818 12.928 94.354 6.27203C99.346 6.65603 103.442 6.65603 108.69 6.65603H152.978C158.226 6.65603 162.45 6.52803 167.57 6.27203C167.57 13.184 167.186 20.224 166.418 27.136L162.194 27.264C161.298 22.912 160.402 19.712 158.994 17.664C157.586 15.616 155.794 13.952 152.722 13.184C150.546 12.544 147.73 12.416 144.274 12.416C138.13 12.416 137.106 13.568 135.826 18.688C134.93 22.528 134.034 27.264 133.266 31.872L126.738 68.352C124.69 79.488 124.178 82.432 124.178 86.144C124.178 89.6 125.458 91.52 130.322 92.928L129.81 96.384C124.946 96.128 119.698 96 116.498 96C113.298 96 108.05 96.128 102.93 96.384L102.802 92.928C107.794 90.88 109.586 88.32 110.994 82.432C112.018 78.208 113.17 72.704 113.938 68.352L119.954 34.304C121.618 24.832 122.642 21.12 122.642 17.152Z" fill="white"/>
<path d="M71.936 87.04C71.936 89.6 73.088 91.52 76.032 93.056L75.264 96.384C70.656 96.128 66.304 96 63.104 96C59.904 96 55.552 96.128 50.56 96.384L50.432 93.056C53.888 91.392 55.552 90.24 56.96 87.808C58.624 84.864 59.776 80.256 60.928 69.504L61.568 63.744H34.56L30.848 68.352C19.712 82.304 18.304 86.656 18.304 89.088C18.304 90.88 19.2 91.904 22.4 93.056L21.888 96.384C17.28 96.128 14.08 96 11.264 96C7.808 96 5.888 96 0.128 96.384L0 92.928C4.224 90.368 7.296 86.912 21.76 68.352L72.064 3.71204L79.872 4.86404L73.344 68.352C72.192 79.104 71.936 84.096 71.936 87.04ZM65.792 22.784L39.552 57.088H62.208L65.792 22.784Z" fill="white"/>
<path d="M746.581 85.888C746.581 81.92 744.405 77.568 739.669 69.504C735.317 62.08 733.909 57.472 733.909 53.12C733.909 44.416 740.693 37.888 749.397 37.888C753.109 37.888 756.053 38.784 758.357 40.704C760.661 42.624 762.069 45.056 762.069 47.616C762.069 50.688 760.277 52.992 757.333 52.992C755.157 52.992 753.237 51.2 752.597 48.512C751.829 45.568 749.909 43.264 747.349 43.264C743.509 43.264 740.821 46.08 740.821 50.176C740.821 54.144 743.381 58.624 747.477 65.92C751.573 73.088 754.005 77.44 754.005 83.328C754.005 92.416 747.733 98.304 739.925 98.304C734.805 98.304 731.221 96.768 728.405 94.208C725.973 92.032 724.437 89.216 724.437 86.528C724.437 83.584 726.357 81.408 728.917 81.408C731.605 81.408 733.269 83.072 734.165 86.656C734.933 89.856 735.829 93.056 740.181 93.056C744.149 93.056 746.581 90.368 746.581 85.888Z" fill="white"/>
<path d="M723.074 57.984C723.074 48 719.746 43.52 715.266 43.52C712.706 43.52 709.634 44.8 706.69 48.64C701.826 55.168 698.242 66.816 698.242 78.72C698.242 88.064 701.442 92.672 706.05 92.672C709.762 92.672 712.706 90.88 715.65 86.656C719.746 80.768 723.074 70.272 723.074 57.984ZM706.178 98.304C696.45 98.304 689.282 89.728 689.282 76.928C689.282 61.952 695.81 49.792 703.49 42.88C707.074 39.68 711.554 37.888 715.138 37.888C724.994 37.888 732.162 46.72 732.162 60.928C732.162 73.984 726.53 85.76 719.49 92.288C715.522 96 710.274 98.304 706.178 98.304Z" fill="white"/>
<path d="M673.297 77.568L680.977 56.32C682.769 51.456 683.153 49.024 683.153 47.744C683.153 46.976 682.769 46.592 682.129 46.592C680.849 46.592 678.289 48.64 672.401 55.552L669.969 53.376C677.265 42.752 682.513 37.888 686.737 37.888C689.425 37.888 691.857 40.32 691.857 44.16C691.857 48.256 689.809 53.888 687.889 59.136L679.569 82.688C678.161 86.528 677.905 87.552 677.905 88.064C677.905 88.704 678.417 89.344 679.185 89.344C680.593 89.344 685.713 88.716 691.985 79.756V80.768C685.201 93.952 679.313 97.536 674.833 97.536C671.889 97.536 669.329 94.976 669.329 91.648C669.329 88.704 670.225 85.888 673.297 77.568ZM684.049 9.47198C684.049 5.63199 686.993 2.68799 690.833 2.68799C694.673 2.68799 697.617 5.63199 697.617 9.47198C697.617 13.312 694.673 16.256 690.833 16.256C686.993 16.256 684.049 13.312 684.049 9.47198Z" fill="white"/>
<path d="M673.942 24.192L659.606 77.952C657.686 84.864 657.558 86.656 657.558 87.168C657.558 87.936 657.942 88.576 658.966 88.576C660.374 88.576 668.648 85.972 675.56 76.756L674.198 78.848C665.622 92.928 659.478 97.536 654.998 97.536C651.798 97.536 649.238 95.488 649.238 92.032C649.238 88.96 649.878 85.376 652.438 75.904C643.222 93.312 635.926 98.304 630.294 98.304C622.998 98.304 619.542 93.056 619.542 86.016C619.542 75.52 626.454 60.288 635.158 50.176C641.046 43.264 647.83 38.656 654.614 38.656C656.918 38.656 659.222 39.296 661.142 40.32L665.494 24.192C666.902 19.2 667.542 14.208 667.542 11.392C667.542 8.576 666.134 6.784 661.654 5.504L661.91 2.304C668.31 1.792 673.046 1.28 678.806 0L680.726 2.048C677.782 10.752 676.502 14.592 673.942 24.192ZM627.606 83.584C627.606 87.68 629.27 90.112 632.598 90.112C637.078 90.112 647.062 82.816 655.766 60.032C657.174 56.448 657.686 53.888 658.838 49.024C656.662 46.976 654.358 46.08 652.438 46.08C647.958 46.08 643.35 48.256 639.126 53.632C632.086 62.592 627.606 74.496 627.606 83.584Z" fill="white"/>
<path d="M605.786 71.68C594.522 93.312 588.634 97.536 582.362 97.536C576.986 97.536 573.658 93.056 573.658 88.448C573.658 85.376 574.81 81.408 577.114 75.392L584.794 55.424C586.202 51.712 586.842 49.664 586.842 48.128C586.842 46.976 586.33 45.952 585.178 45.952C583.002 45.952 580.698 48.512 574.81 55.808L572.25 53.632C579.418 42.88 584.282 37.888 589.53 37.888C592.602 37.888 595.29 40.704 595.29 44.8C595.29 47.744 594.65 50.304 591.45 58.752L583.77 79.232C582.49 82.56 582.106 84.224 582.106 86.016C582.106 88.064 583.13 89.344 585.562 89.344C590.17 89.344 601.434 79.104 613.594 44.544L615.386 39.424C616.154 39.04 617.178 38.784 618.202 38.784C620.122 38.784 622.17 39.936 623.322 42.24C619.61 52.48 618.202 55.808 615.898 63.744C612.058 77.056 610.906 82.688 610.65 84.992C610.522 86.272 610.522 87.296 610.522 87.936C610.522 88.576 611.034 89.344 611.802 89.344C613.21 89.344 617.404 89.46 624.06 80.756L624.858 81.408C617.178 93.824 612.058 97.536 607.578 97.536C603.994 97.536 602.202 94.976 602.202 91.264C602.202 88.32 602.202 84.736 605.786 71.68Z" fill="white"/>
<path d="M550.684 42.24L561.18 41.728C562.332 36.864 562.972 32.896 563.74 29.184C564.892 28.416 566.172 28.032 567.708 28.032C569.116 28.032 570.908 28.672 572.188 30.336L569.372 41.088L584.06 40.256L581.788 42.496L580.124 47.232H567.708L558.62 82.304C557.98 84.992 557.724 86.528 557.724 87.424C557.724 88.448 558.364 89.216 559.516 89.216C561.436 89.216 568.924 89.006 576.56 79.256L577.56 80.756C568.424 94.881 561.18 97.536 556.444 97.536C552.476 97.536 549.532 95.232 549.532 90.496C549.532 87.424 550.172 84.48 551.836 78.08L559.644 47.232H550.428L550.684 42.24Z" fill="white"/>
<path d="M498.736 74.88L502.96 74.368C503.856 78.336 504.624 81.024 506.032 84.096C508.464 89.6 511.792 92.544 519.728 92.544C529.2 92.544 537.776 85.76 537.776 74.88C537.776 67.712 535.088 63.488 525.616 51.968C517.296 41.728 513.456 36.864 513.456 27.904C513.456 14.592 524.592 4.47998 538.928 4.47998C544.304 4.47998 549.552 5.50397 554.032 7.67998C554.16 10.496 554.288 12.544 554.288 14.592C554.288 17.408 554.288 20.736 554.032 24.704L550.576 24.832C549.424 20.096 547.888 16.896 545.328 14.208C543.024 11.648 539.44 10.496 536.24 10.496C527.92 10.496 522.416 16.128 522.416 24.576C522.416 32 526.512 36.608 533.296 44.416C544.432 57.216 547.12 62.72 547.12 72.32C547.12 89.088 532.784 98.432 518.448 98.432C509.616 98.432 503.984 96.64 499.376 93.952C498.992 87.04 498.864 82.176 498.736 74.88Z" fill="white"/>
</svg>
